<?xml version="1.0" encoding="UTF-8"?>
<svg width="512" height="512" viewBox="0 0 512 512" fill="none" xmlns="http://www.w3.org/2000/svg">
  <!-- Fundo com gradiente -->
  <rect width="512" height="512" rx="128" fill="url(#paint0_linear)"/>
  
  <!-- Letra I estilizada -->
  <path d="M256 96C238.33 96 224 110.33 224 128V384C224 401.67 238.33 416 256 416C273.67 416 288 401.67 288 384V128C288 110.33 273.67 96 256 96Z" fill="white"/>
  
  <!-- Ondas de som estilizadas -->
  <path d="M352 192C334.33 192 320 206.33 320 224V288C320 305.67 334.33 320 352 320C369.67 320 384 305.67 384 288V224C384 206.33 369.67 192 352 192Z" fill="white" fill-opacity="0.7"/>
  
  <path d="M160 192C142.33 192 128 206.33 128 224V288C128 305.67 142.33 320 160 320C177.67 320 192 305.67 192 288V224C192 206.33 177.67 192 160 192Z" fill="white" fill-opacity="0.7"/>
  
  <!-- Círculo decorativo -->
  <circle cx="256" cy="256" r="180" stroke="white" stroke-width="24" stroke-opacity="0.15"/>
  
  <!-- Definição do gradiente -->
  <defs>
    <linearGradient id="paint0_linear" x1="0" y1="0" x2="512" y2="512" gradientUnits="userSpaceOnUse">
      <stop stop-color="#4F46E5"/>
      <stop offset="1" stop-color="#6366F1"/>
    </linearGradient>
  </defs>
</svg>
