<?xml version="1.0" encoding="UTF-8"?>
<svg width="512" height="512" viewBox="0 0 512 512" fill="none" xmlns="http://www.w3.org/2000/svg">
  <!-- Fundo com gradiente -->
  <rect width="512" height="512" rx="100" fill="url(#paint0_linear)"/>
  
  <!-- Símbolo de telefone estilizado -->
  <path d="M352 376c-8.188 0-16.38-3.125-22.62-9.375L223.3 260.5c-12.5-12.5-12.5-32.75 0-45.25l22.5-22.5c12.5-12.5 32.75-12.5 45.25 0l106.1 106.1c12.5 12.5 12.5 32.75 0 45.25l-22.5 22.5C368.4 372.9 360.2 376 352 376zM295.3 208.5l-22.5 22.5c-4.125 4.125-4.125 10.75 0 14.88l106.1 106.1c4.125 4.125 10.75 4.125 14.88 0l22.5-22.5c4.125-4.125 4.125-10.75 0-14.88l-106.1-106.1C306 204.4 299.4 204.4 295.3 208.5z" fill="white"/>
  
  <!-- Círculo decorativo -->
  <circle cx="256" cy="256" r="120" stroke="white" stroke-width="24" stroke-opacity="0.2"/>
  
  <!-- Definição do gradiente -->
  <defs>
    <linearGradient id="paint0_linear" x1="0" y1="0" x2="512" y2="512" gradientUnits="userSpaceOnUse">
      <stop stop-color="#6366F1"/>
      <stop offset="1" stop-color="#4F46E5"/>
    </linearGradient>
  </defs>
</svg>
